<svg width="100%" height="100%" viewBox="0 0 109 144" fill="none" xmlns="http://www.w3.org/2000/svg">
  <g clip-path="url(#clip0)">
    <path d="M88.6752 121.68H48.5646C42.0894 121.68 36.6934 116.28 36.6934 109.8V11.88C36.6934 5.4 42.0894 0 48.5646 0H88.6752C95.1505 0 100.546 5.4 100.546 11.88V109.8C100.546 116.28 95.1505 121.68 88.6752 121.68ZM48.5646 4.14C44.2478 4.14 40.8303 7.56 40.8303 11.88V109.8C40.8303 114.12 44.2478 117.54 48.5646 117.54H88.6752C92.992 117.54 96.4095 114.12 96.4095 109.8V11.88C96.4095 7.56 92.992 4.14 88.6752 4.14H48.5646Z" fill="#77A0BA"/>
    <path d="M55.5796 4.13965V10.4396H81.6605V4.13965" fill="white"/>
    <path d="M81.6605 12.6002H55.5796C54.5004 12.6002 53.6011 11.7002 53.6011 10.6202V4.14016C53.6011 3.06016 54.5004 2.16016 55.5796 2.16016C56.6588 2.16016 57.5582 3.06016 57.5582 4.14016V8.46016H79.6819V4.14016C79.6819 3.06016 80.5813 2.16016 81.6605 2.16016C82.7397 2.16016 83.639 3.06016 83.639 4.14016V10.4402C83.8189 11.5202 82.7397 12.6002 81.6605 12.6002Z" fill="#77A0BA"/>
    <path d="M106.482 50.4009C105.223 47.7009 101.986 46.4409 99.1079 47.7009L93.3521 50.2209C90.6541 51.4809 89.395 54.7209 90.6541 57.6009C91.9132 60.3009 95.1508 61.5609 98.0287 60.3009L103.784 57.7809C106.482 56.5209 107.742 53.2809 106.482 50.4009Z" fill="white"/>
    <path d="M95.6903 62.8203C94.7909 62.8203 93.8916 62.6403 92.9923 62.2803C91.0137 61.5603 89.5748 60.1203 88.6754 58.3203C87.7761 56.5203 87.7761 54.3603 88.4956 52.5603C89.215 50.5803 90.654 49.1403 92.4527 48.2403L98.2084 45.7203C101.986 43.9203 106.482 45.7203 108.281 49.5003C110.08 53.2803 108.281 57.7803 104.504 59.5803L98.748 62.1003C97.8487 62.6403 96.7695 62.8203 95.6903 62.8203ZM101.446 49.3203C100.906 49.3203 100.547 49.5003 100.007 49.6803L94.2513 52.2003C93.352 52.5603 92.8124 53.2803 92.4527 54.1803C92.0929 55.0803 92.0929 55.9803 92.4527 56.8803C92.8124 57.7803 93.5319 58.3203 94.4312 58.6803C95.3305 59.0403 96.2299 59.0403 97.1292 58.6803L102.885 56.1603C104.684 55.4403 105.403 53.2803 104.684 51.4803C103.964 50.0403 102.705 49.3203 101.446 49.3203Z" fill="#77A0BA"/>
    <path d="M102.885 67.6802C101.626 64.9802 98.3881 63.7202 95.5102 64.9802L89.7545 67.5002C87.0565 68.7602 85.7974 72.0002 87.0565 74.8801C88.3155 77.5801 91.5531 78.8401 94.431 77.5801L100.187 75.0602C102.885 73.8002 104.144 70.3802 102.885 67.6802Z" fill="white"/>
    <path d="M92.0929 80.0996C89.215 80.0996 86.517 78.4796 85.2579 75.5996C83.4592 71.8196 85.2579 67.3196 89.0351 65.5196L94.7909 62.9996C98.5681 61.1996 103.065 62.9996 104.863 66.7796C106.662 70.5596 104.863 75.0596 101.086 76.8596L95.3305 79.3796C94.2513 79.9196 93.1721 80.0996 92.0929 80.0996ZM97.8486 66.4196C97.309 66.4196 96.9493 66.5996 96.4097 66.7796L90.6539 69.2996C88.8552 70.0196 88.1358 72.1796 88.8552 73.9796C89.5747 75.7796 91.7331 76.4996 93.5318 75.7796L99.2876 73.2596C101.086 72.5396 101.806 70.3796 101.086 68.5796C100.367 67.3196 99.1077 66.4196 97.8486 66.4196Z" fill="#77A0BA"/>
    <path d="M102.885 80.4604C101.626 77.7604 98.388 76.5004 95.5102 77.7604L87.4161 81.3604C84.7181 82.6204 83.459 85.8604 84.7181 88.7404C85.9772 91.4404 89.2148 92.7004 92.0927 91.4404L100.187 87.8404C102.885 86.5804 104.144 83.1604 102.885 80.4604Z" fill="white"/>
    <path d="M89.7542 93.9599C88.8549 93.9599 87.9556 93.7799 87.0562 93.4199C85.0777 92.6999 83.6387 91.2599 82.7394 89.4599C81.8401 87.6599 81.8401 85.4999 82.5595 83.6999C83.279 81.7199 84.7179 80.2799 86.5166 79.3799L94.6107 75.7799C98.3879 73.9799 102.885 75.7799 104.683 79.5599C106.482 83.3399 104.683 87.8399 100.906 89.6399L92.812 93.2399C91.7328 93.7799 90.8335 93.9599 89.7542 93.9599ZM97.8483 79.1999C97.3087 79.1999 96.949 79.3799 96.4094 79.5599L88.3153 83.1599C87.416 83.5199 86.8764 84.2399 86.5166 85.1399C86.1569 86.0399 86.1569 86.9399 86.5166 87.8399C86.8764 88.7399 87.5958 89.2799 88.4952 89.6399C89.3945 89.9999 90.2938 89.9999 91.1932 89.6399L99.2872 86.0399C101.086 85.3199 101.805 83.1599 101.086 81.3599C100.366 80.0999 99.1074 79.1999 97.8483 79.1999Z" fill="#77A0BA"/>
    <path d="M102.705 93.5991C101.445 90.8991 98.2079 89.6391 95.33 90.8991L92.0924 92.3391C89.3943 93.5991 88.1353 96.8391 89.3943 99.7191C90.6534 102.419 93.891 103.679 96.7689 102.419L100.007 100.979C102.705 99.7191 103.964 96.4791 102.705 93.5991Z" fill="white"/>
    <path d="M94.2511 105.119C91.5531 105.119 88.855 103.499 87.596 100.799L87.2362 100.079C85.6174 96.4791 87.2362 92.1591 90.8336 90.5391L94.7907 88.7391C98.3881 87.1191 102.705 88.7391 104.324 92.3391L104.683 93.0591C106.302 96.6591 104.683 100.979 101.086 102.599L97.129 104.399C96.2296 104.939 95.3303 105.119 94.2511 105.119ZM97.8484 92.3391C97.4887 92.3391 96.9491 92.3391 96.5894 92.6991L92.6323 94.4991C91.0135 95.2191 90.294 97.0191 91.0135 98.6391L91.3732 99.3591C92.0927 100.979 93.8913 101.699 95.5102 100.979L99.4673 99.1791C101.086 98.4591 101.806 96.6591 101.086 95.0391L100.726 94.1391C100.187 93.0591 99.1075 92.3391 97.8484 92.3391Z" fill="#77A0BA"/>
    <path d="M31.1174 144C30.5778 144 29.8584 143.82 29.4986 143.28C28.7792 142.38 28.959 141.12 29.8584 140.4C33.4557 137.52 37.233 135 41.3699 133.2C44.0679 131.94 46.2264 131.4 48.025 130.86C49.6439 130.32 50.9029 129.96 52.5217 129.24C52.8815 129.06 53.0613 128.88 53.4211 128.88C56.4788 127.26 59.3567 126 62.5943 118.98C63.134 117.9 64.393 117.54 65.2924 118.08C66.3716 118.62 66.7313 119.88 66.1917 120.78C62.2346 129.06 58.4574 130.86 55.2198 132.66C55.0399 132.84 54.6802 132.84 54.5003 133.02C52.7016 133.92 51.0828 134.46 49.464 135C47.8452 135.54 45.8666 136.08 43.3485 137.16C39.5712 138.96 35.9739 141.12 32.7363 143.82C32.0168 143.82 31.657 144 31.1174 144Z" fill="#77A0BA"/>
    <path d="M38.8519 106.561V75.9608C40.2909 67.6808 42.2694 65.1608 39.9312 55.9808C38.4922 50.7608 34.715 43.9208 31.4774 44.4608C24.2826 45.5408 29.1391 53.6408 23.9229 67.5008C18.5269 81.5408 14.5698 80.2808 12.0516 91.4408C10.4328 98.6407 11.6919 102.961 7.91465 110.701C5.9361 115.201 3.59782 118.621 1.979 120.781" fill="white"/>
    <path d="M1.97876 122.94C1.61902 122.94 1.07942 122.76 0.719683 122.58C0.000210796 121.86 -0.359525 120.6 0.359947 119.52C2.51836 116.46 4.49691 113.22 6.11572 109.8C8.27414 105.12 8.63387 101.88 8.99361 97.9204C9.17348 95.7604 9.35335 93.4204 10.0728 90.9004C11.5118 84.6004 13.3104 81.9004 15.4689 78.8404C17.4474 76.1404 19.426 73.0804 21.9441 66.6004C24.1025 60.8404 24.4623 56.1604 24.822 52.5604C25.1817 47.7004 25.5415 43.2004 31.2972 42.4804C36.5134 41.7604 40.8302 50.9404 41.9095 55.6204C43.888 62.8204 42.9887 66.4204 41.9095 71.2804C41.5497 72.7204 41.19 74.3404 40.8302 76.3204V106.74C40.8302 107.82 39.9309 108.72 38.8517 108.72C37.7725 108.72 36.8731 107.82 36.8731 106.74V76.1404C36.8731 75.9604 36.8731 75.9604 36.8731 75.7804C37.2329 73.6204 37.5926 72.0004 37.9524 70.3804C39.0316 65.8804 39.5712 63.0004 37.9524 56.7004C37.2329 54.1804 35.9738 51.4804 34.7147 49.3204C33.0959 46.9804 32.0167 46.4404 31.8368 46.6204C29.6784 46.9804 29.3187 47.5204 28.959 52.9204C28.5992 56.7004 28.2395 61.9204 25.9012 68.2204C23.2032 75.2404 20.8649 78.6604 18.8863 81.3604C16.7279 84.4204 15.289 86.4004 14.0299 91.9804C13.4903 94.3204 13.3104 96.4804 13.1306 98.6404C12.7708 102.6 12.4111 106.56 9.89295 111.78C8.09427 115.38 6.11572 118.8 3.77744 122.22C3.23783 122.58 2.69823 122.94 1.97876 122.94Z" fill="#77A0BA"/>
  </g>
  <defs>
  <clipPath id="clip0">
  <rect width="100%" height="100%" fill="white"/>
  </clipPath>
  </defs>
</svg>